<svg id="visual" viewBox="0 0 2000 2000" width="2000" height="2000" xmlns="http://www.w3.org/2000/svg" xmlns:xlink="http://www.w3.org/1999/xlink" version="1.1"><rect x="0" y="0" width="2000" height="2000" fill="#000"></rect><defs><linearGradient id="grad1_0" x1="0%" y1="0%" x2="100%" y2="100%"><stop offset="30%" stop-color="#000000" stop-opacity="1"></stop><stop offset="70%" stop-color="#000000" stop-opacity="1"></stop></linearGradient></defs><defs><linearGradient id="grad2_0" x1="0%" y1="0%" x2="100%" y2="100%"><stop offset="30%" stop-color="#000000" stop-opacity="1"></stop><stop offset="70%" stop-color="#000000" stop-opacity="1"></stop></linearGradient></defs><g transform="translate(2000, 0)"><path d="M0 1272.8C-133.3 1186.6 -266.6 1100.4 -437.4 1056C-608.2 1011.6 -816.4 1009.1 -900 900C-983.6 790.9 -942.6 575.3 -983.9 407.6C-1025.3 239.8 -1149 119.9 -1272.8 0L0 0Z" fill="#252525"></path></g><g transform="translate(0, 2000)"><path d="M0 -1272.8C170.2 -1258.3 340.4 -1243.9 487.1 -1175.9C633.7 -1108 756.8 -986.5 861.3 -861.3C965.7 -736 1051.5 -606.8 1117 -462.7C1182.5 -318.5 1227.6 -159.2 1272.8 0L0 0Z" fill="#252525"></path></g></svg>