<svg id="visual" viewBox="0 0 2000 2000" width="2000" height="2000" xmlns="http://www.w3.org/2000/svg" xmlns:xlink="http://www.w3.org/1999/xlink" version="1.1"><path d="M0 241L166.7 244.3C333.3 247.7 666.7 254.3 1000 254.3C1333.3 254.3 1666.7 247.7 1833.3 244.3L2000 241L2000 0L1833.3 0C1666.7 0 1333.3 0 1000 0C666.7 0 333.3 0 166.7 0L0 0Z" fill="#252525"></path><path d="M0 461L166.7 461C333.3 461 666.7 461 1000 457.7C1333.3 454.3 1666.7 447.7 1833.3 444.3L2000 441L2000 239L1833.3 242.3C1666.7 245.7 1333.3 252.3 1000 252.3C666.7 252.3 333.3 245.7 166.7 242.3L0 239Z" fill="#1f1f1f"></path><path d="M0 981L166.7 981C333.3 981 666.7 981 1000 967.7C1333.3 954.3 1666.7 927.7 1833.3 914.3L2000 901L2000 439L1833.3 442.3C1666.7 445.7 1333.3 452.3 1000 455.7C666.7 459 333.3 459 166.7 459L0 459Z" fill="#191919"></path><path d="M0 1501L166.7 1497.7C333.3 1494.3 666.7 1487.7 1000 1484.3C1333.3 1481 1666.7 1481 1833.3 1481L2000 1481L2000 899L1833.3 912.3C1666.7 925.7 1333.3 952.3 1000 965.7C666.7 979 333.3 979 166.7 979L0 979Z" fill="#131313"></path><path d="M0 1821L166.7 1821C333.3 1821 666.7 1821 1000 1821C1333.3 1821 1666.7 1821 1833.3 1821L2000 1821L2000 1479L1833.3 1479C1666.7 1479 1333.3 1479 1000 1482.3C666.7 1485.7 333.3 1492.3 166.7 1495.7L0 1499Z" fill="#0b0b0b"></path><path d="M0 2001L166.7 2001C333.3 2001 666.7 2001 1000 2001C1333.3 2001 1666.7 2001 1833.3 2001L2000 2001L2000 1819L1833.3 1819C1666.7 1819 1333.3 1819 1000 1819C666.7 1819 333.3 1819 166.7 1819L0 1819Z" fill="#000000"></path></svg>