<svg width="360" height="65" viewBox="0 0 360 65" fill="none" xmlns="http://www.w3.org/2000/svg">
<path d="M-77 44.0767C-55.9361 46.6691 -34.927 50.6608 -13.7778 52.41C9.88248 54.3669 33.8493 54.3582 57.5556 53.41C91.4983 52.0523 124.919 46.0866 158.778 43.91C223.261 39.7647 287.7 33.7862 352 39.91C362.5 40.91 379.326 42.6418 391.5 51.0767" stroke="#33E7DC" stroke-opacity="0.58" stroke-width="20" stroke-linecap="round"/>
<path d="M-96 30.0767C-74.9361 32.6692 -53.927 36.6609 -32.7778 38.41C-9.11752 40.3669 14.8493 40.3583 38.5556 39.41C72.4983 38.0523 105.919 32.0867 139.778 29.91C204.261 25.7647 252.881 19.84 316.944 28.0767C332.5 30.0767 360.826 30.6419 379 37.0767" stroke="#33E7DC" stroke-opacity="0.87" stroke-width="20" stroke-linecap="round"/>
<path d="M-108 14.0767C-86.9361 16.6692 -65.927 20.6608 -44.7778 22.41C-21.1175 24.3669 2.84925 24.3583 26.5556 23.41C60.4983 22.0523 93.9191 16.0866 127.778 13.91C192.261 9.76468 257.354 8.07668 321.944 13.0767C336.5 12.91 351.826 15.6419 368 21.0767" stroke="#33E7DC" stroke-width="20" stroke-linecap="round"/>
</svg>
