<svg width="30" height="30" viewBox="0 0 30 30" fill="none" xmlns="http://www.w3.org/2000/svg">
<path d="M30 30H0V0H30V30ZM10.1667 23.72L7.88667 25.1267C8.242 25.9065 8.81792 26.5653 9.54333 27.0217C10.3314 27.4733 11.2268 27.7037 12.135 27.6883C12.6113 27.685 13.0858 27.6292 13.55 27.5217C14.521 27.2828 15.3442 26.6415 15.8133 25.7583C16.2808 24.6583 16.4532 23.4553 16.3133 22.2683C16.3133 22.0417 16.3133 21.81 16.3133 21.5767C16.3217 19.865 16.3133 18.1233 16.3133 16.4367C16.3133 15.5767 16.3133 14.715 16.3133 13.8517V13.7817H13.5C13.5 14.9917 13.5 16.1988 13.5 17.4033C13.5 18.615 13.5 19.825 13.5 21.0383C13.5 21.3483 13.5 21.6517 13.5 21.9433C13.5837 22.7752 13.5233 23.6153 13.3217 24.4267C13.0795 24.894 12.5813 25.171 12.0567 25.13C11.8217 25.1293 11.588 25.094 11.3633 25.025C10.9119 24.789 10.5481 24.4147 10.325 23.9567L10.27 23.8633C10.2183 23.775 10.1833 23.7133 10.1667 23.7133V23.72ZM20.0817 23.3867L17.7933 24.6983C17.9807 25.1083 18.2392 25.4818 18.5567 25.8017C18.635 25.8883 18.7233 25.9817 18.805 26.085C19.924 27.0857 21.3863 27.6153 22.8867 27.5633C24.8282 27.7547 26.6625 26.6398 27.3867 24.8283V24.815C27.5763 24.1492 27.6067 23.448 27.475 22.7683L27.5317 22.85C27.285 21.3017 26.1633 20.2267 23.7783 19.2583C23.5933 19.1717 23.4017 19.0917 23.215 19.0083C22.4733 18.6883 21.7733 18.3883 21.53 17.8417C21.4215 17.5605 21.4018 17.2528 21.4733 16.96C21.6458 16.3735 22.2118 15.9932 22.82 16.055C23.0057 16.055 23.1903 16.082 23.3683 16.135C23.9168 16.3198 24.3605 16.7297 24.5883 17.2617C25.88 16.4167 25.88 16.4167 26.7817 15.855C26.5753 15.5028 26.33 15.1753 26.05 14.8783C25.1945 13.9612 23.9668 13.4848 22.7167 13.585H22.5167L21.6367 13.6967C20.8102 13.8822 20.0625 14.3215 19.4983 14.9533C18.8352 15.7827 18.5365 16.8455 18.6705 17.899C18.8047 18.9525 19.3602 19.9065 20.21 20.5433C20.94 21.043 21.7273 21.453 22.555 21.765C23.6233 22.215 24.545 22.5983 24.7317 23.3C24.8447 23.7063 24.7613 24.1422 24.5067 24.4783C24.0542 24.9252 23.4283 25.1505 22.795 25.095C22.6207 25.0945 22.4463 25.0833 22.2733 25.0617C21.3308 24.8505 20.5283 24.2363 20.0783 23.3817L20.0817 23.3867Z" fill="#212020"/>
</svg>
